ISO-10303-21;
HEADER;
/* Generated by software containing ST-Developer
 * from STEP Tools, Inc. (www.steptools.com) 
 */

FILE_DESCRIPTION(
/* description */ (''),
/* implementation_level */ '2;1');

FILE_NAME(
/* name */ 'connecting-plate.step',
/* time_stamp */ '2024-11-05T18:15:43-05:00',
/* author */ (''),
/* organization */ (''),
/* preprocessor_version */ 'ST-DEVELOPER v20',
/* originating_system */ 'Autodesk Translation Framework v13.20.0.188',

/* authorisation */ '');

FILE_SCHEMA (('AUTOMOTIVE_DESIGN { 1 0 10303 214 3 1 1 }'));
ENDSEC;

DATA;
#10=MECHANICAL_DESIGN_GEOMETRIC_PRESENTATION_REPRESENTATION('',(#13),#1039);
#11=SHAPE_REPRESENTATION_RELATIONSHIP('SRR','None',#1046,#12);
#12=ADVANCED_BREP_SHAPE_REPRESENTATION('',(#14),#1038);
#13=STYLED_ITEM('',(#1055),#14);
#14=MANIFOLD_SOLID_BREP('Body1',#611);
#15=FACE_BOUND('',#78,.T.);
#16=FACE_BOUND('',#79,.T.);
#17=FACE_BOUND('',#80,.T.);
#18=FACE_BOUND('',#81,.T.);
#19=FACE_BOUND('',#82,.T.);
#20=FACE_BOUND('',#83,.T.);
#21=FACE_BOUND('',#84,.T.);
#22=FACE_BOUND('',#85,.T.);
#23=FACE_BOUND('',#113,.T.);
#24=FACE_BOUND('',#114,.T.);
#25=FACE_BOUND('',#115,.T.);
#26=FACE_BOUND('',#116,.T.);
#27=FACE_BOUND('',#117,.T.);
#28=FACE_BOUND('',#118,.T.);
#29=FACE_BOUND('',#119,.T.);
#30=FACE_BOUND('',#120,.T.);
#31=PLANE('',#628);
#32=PLANE('',#629);
#33=PLANE('',#647);
#34=PLANE('',#650);
#35=PLANE('',#653);
#36=PLANE('',#656);
#37=PLANE('',#659);
#38=PLANE('',#662);
#39=PLANE('',#665);
#40=PLANE('',#668);
#41=PLANE('',#671);
#42=PLANE('',#674);
#43=PLANE('',#685);
#44=PLANE('',#686);
#45=FACE_OUTER_BOUND('',#75,.T.);
#46=FACE_OUTER_BOUND('',#76,.T.);
#47=FACE_OUTER_BOUND('',#77,.T.);
#48=FACE_OUTER_BOUND('',#86,.T.);
#49=FACE_OUTER_BOUND('',#87,.T.);
#50=FACE_OUTER_BOUND('',#88,.T.);
#51=FACE_OUTER_BOUND('',#89,.T.);
#52=FACE_OUTER_BOUND('',#90,.T.);
#53=FACE_OUTER_BOUND('',#91,.T.);
#54=FACE_OUTER_BOUND('',#92,.T.);
#55=FACE_OUTER_BOUND('',#93,.T.);
#56=FACE_OUTER_BOUND('',#94,.T.);
#57=FACE_OUTER_BOUND('',#95,.T.);
#58=FACE_OUTER_BOUND('',#96,.T.);
#59=FACE_OUTER_BOUND('',#97,.T.);
#60=FACE_OUTER_BOUND('',#98,.T.);
#61=FACE_OUTER_BOUND('',#99,.T.);
#62=FACE_OUTER_BOUND('',#100,.T.);
#63=FACE_OUTER_BOUND('',#101,.T.);
#64=FACE_OUTER_BOUND('',#102,.T.);
#65=FACE_OUTER_BOUND('',#103,.T.);
#66=FACE_OUTER_BOUND('',#104,.T.);
#67=FACE_OUTER_BOUND('',#105,.T.);
#68=FACE_OUTER_BOUND('',#106,.T.);
#69=FACE_OUTER_BOUND('',#107,.T.);
#70=FACE_OUTER_BOUND('',#108,.T.);
#71=FACE_OUTER_BOUND('',#109,.T.);
#72=FACE_OUTER_BOUND('',#110,.T.);
#73=FACE_OUTER_BOUND('',#111,.T.);
#74=FACE_OUTER_BOUND('',#112,.T.);
#75=EDGE_LOOP('',(#397,#398,#399,#400));
#76=EDGE_LOOP('',(#401,#402,#403,#404));
#77=EDGE_LOOP('',(#405,#406,#407,#408,#409,#410,#411,#412));
#78=EDGE_LOOP('',(#413,#414,#415,#416));
#79=EDGE_LOOP('',(#417,#418,#419,#420));
#80=EDGE_LOOP('',(#421,#422,#423,#424));
#81=EDGE_LOOP('',(#425,#426,#427,#428));
#82=EDGE_LOOP('',(#429));
#83=EDGE_LOOP('',(#430));
#84=EDGE_LOOP('',(#431));
#85=EDGE_LOOP('',(#432));
#86=EDGE_LOOP('',(#433,#434,#435,#436));
#87=EDGE_LOOP('',(#437,#438,#439,#440));
#88=EDGE_LOOP('',(#441,#442,#443,#444));
#89=EDGE_LOOP('',(#445,#446,#447,#448));
#90=EDGE_LOOP('',(#449,#450,#451,#452));
#91=EDGE_LOOP('',(#453,#454,#455,#456));
#92=EDGE_LOOP('',(#457,#458,#459,#460));
#93=EDGE_LOOP('',(#461,#462,#463,#464));
#94=EDGE_LOOP('',(#465,#466,#467,#468));
#95=EDGE_LOOP('',(#469,#470,#471,#472));
#96=EDGE_LOOP('',(#473,#474,#475,#476));
#97=EDGE_LOOP('',(#477,#478,#479,#480));
#98=EDGE_LOOP('',(#481,#482,#483,#484));
#99=EDGE_LOOP('',(#485,#486,#487,#488));
#100=EDGE_LOOP('',(#489,#490,#491,#492));
#101=EDGE_LOOP('',(#493,#494,#495,#496));
#102=EDGE_LOOP('',(#497,#498,#499,#500));
#103=EDGE_LOOP('',(#501,#502,#503,#504));
#104=EDGE_LOOP('',(#505,#506,#507,#508));
#105=EDGE_LOOP('',(#509,#510,#511,#512));
#106=EDGE_LOOP('',(#513,#514,#515,#516));
#107=EDGE_LOOP('',(#517,#518,#519,#520));
#108=EDGE_LOOP('',(#521,#522,#523,#524));
#109=EDGE_LOOP('',(#525,#526,#527,#528));
#110=EDGE_LOOP('',(#529,#530,#531,#532));
#111=EDGE_LOOP('',(#533,#534,#535,#536));
#112=EDGE_LOOP('',(#537,#538,#539,#540,#541,#542,#543,#544));
#113=EDGE_LOOP('',(#545,#546,#547,#548));
#114=EDGE_LOOP('',(#549,#550,#551,#552));
#115=EDGE_LOOP('',(#553,#554,#555,#556));
#116=EDGE_LOOP('',(#557,#558,#559,#560));
#117=EDGE_LOOP('',(#561));
#118=EDGE_LOOP('',(#562));
#119=EDGE_LOOP('',(#563));
#120=EDGE_LOOP('',(#564));
#121=LINE('',#871,#173);
#122=LINE('',#874,#174);
#123=LINE('',#877,#175);
#124=LINE('',#879,#176);
#125=LINE('',#880,#177);
#126=LINE('',#883,#178);
#127=LINE('',#887,#179);
#128=LINE('',#891,#180);
#129=LINE('',#895,#181);
#130=LINE('',#899,#182);
#131=LINE('',#903,#183);
#132=LINE('',#907,#184);
#133=LINE('',#911,#185);
#134=LINE('',#915,#186);
#135=LINE('',#919,#187);
#136=LINE('',#923,#188);
#137=LINE('',#935,#189);
#138=LINE('',#939,#190);
#139=LINE('',#940,#191);
#140=LINE('',#943,#192);
#141=LINE('',#946,#193);
#142=LINE('',#948,#194);
#143=LINE('',#951,#195);
#144=LINE('',#956,#196);
#145=LINE('',#957,#197);
#146=LINE('',#958,#198);
#147=LINE('',#962,#199);
#148=LINE('',#965,#200);
#149=LINE('',#966,#201);
#150=LINE('',#972,#202);
#151=LINE('',#973,#203);
#152=LINE('',#974,#204);
#153=LINE('',#978,#205);
#154=LINE('',#981,#206);
#155=LINE('',#982,#207);
#156=LINE('',#988,#208);
#157=LINE('',#989,#209);
#158=LINE('',#990,#210);
#159=LINE('',#994,#211);
#160=LINE('',#997,#212);
#161=LINE('',#998,#213);
#162=LINE('',#1004,#214);
#163=LINE('',#1005,#215);
#164=LINE('',#1006,#216);
#165=LINE('',#1010,#217);
#166=LINE('',#1013,#218);
#167=LINE('',#1014,#219);
#168=LINE('',#1019,#220);
#169=LINE('',#1023,#221);
#170=LINE('',#1027,#222);
#171=LINE('',#1031,#223);
#172=LINE('',#1034,#224);
#173=VECTOR('',#693,10.);
#174=VECTOR('',#696,10.);
#175=VECTOR('',#699,10.);
#176=VECTOR('',#700,10.);
#177=VECTOR('',#701,10.);
#178=VECTOR('',#704,10.);
#179=VECTOR('',#707,10.);
#180=VECTOR('',#710,10.);
#181=VECTOR('',#713,10.);
#182=VECTOR('',#716,10.);
#183=VECTOR('',#719,10.);
#184=VECTOR('',#722,10.);
#185=VECTOR('',#725,10.);
#186=VECTOR('',#728,10.);
#187=VECTOR('',#731,10.);
#188=VECTOR('',#734,10.);
#189=VECTOR('',#747,10.);
#190=VECTOR('',#752,10.);
#191=VECTOR('',#753,10.);
#192=VECTOR('',#756,10.);
#193=VECTOR('',#759,10.);
#194=VECTOR('',#762,10.);
#195=VECTOR('',#765,10.);
#196=VECTOR('',#770,10.);
#197=VECTOR('',#771,10.);
#198=VECTOR('',#772,10.);
#199=VECTOR('',#777,10.);
#200=VECTOR('',#780,10.);
#201=VECTOR('',#781,10.);
#202=VECTOR('',#788,10.);
#203=VECTOR('',#789,10.);
#204=VECTOR('',#790,10.);
#205=VECTOR('',#795,10.);
#206=VECTOR('',#798,10.);
#207=VECTOR('',#799,10.);
#208=VECTOR('',#806,10.);
#209=VECTOR('',#807,10.);
#210=VECTOR('',#808,10.);
#211=VECTOR('',#813,10.);
#212=VECTOR('',#816,10.);
#213=VECTOR('',#817,10.);
#214=VECTOR('',#824,10.);
#215=VECTOR('',#825,10.);
#216=VECTOR('',#826,10.);
#217=VECTOR('',#831,10.);
#218=VECTOR('',#834,10.);
#219=VECTOR('',#835,10.);
#220=VECTOR('',#842,5.);
#221=VECTOR('',#847,5.);
#222=VECTOR('',#852,5.);
#223=VECTOR('',#857,5.);
#224=VECTOR('',#862,10.);
#225=CIRCLE('',#626,3.);
#226=CIRCLE('',#627,3.);
#227=CIRCLE('',#630,3.);
#228=CIRCLE('',#631,3.);
#229=CIRCLE('',#632,3.);
#230=CIRCLE('',#633,5.);
#231=CIRCLE('',#634,5.);
#232=CIRCLE('',#635,5.00000000000001);
#233=CIRCLE('',#636,4.99999999999996);
#234=CIRCLE('',#637,5.);
#235=CIRCLE('',#638,5.);
#236=CIRCLE('',#639,5.);
#237=CIRCLE('',#640,5.);
#238=CIRCLE('',#641,5.);
#239=CIRCLE('',#642,5.);
#240=CIRCLE('',#643,5.);
#241=CIRCLE('',#644,5.);
#242=CIRCLE('',#646,3.);
#243=CIRCLE('',#649,3.);
#244=CIRCLE('',#652,3.);
#245=CIRCLE('',#655,5.);
#246=CIRCLE('',#658,5.);
#247=CIRCLE('',#661,4.99999999999996);
#248=CIRCLE('',#664,5.00000000000001);
#249=CIRCLE('',#667,5.);
#250=CIRCLE('',#670,5.);
#251=CIRCLE('',#673,5.);
#252=CIRCLE('',#676,5.);
#253=CIRCLE('',#678,5.);
#254=CIRCLE('',#680,5.);
#255=CIRCLE('',#682,5.);
#256=CIRCLE('',#684,5.);
#257=VERTEX_POINT('',#867);
#258=VERTEX_POINT('',#868);
#259=VERTEX_POINT('',#870);
#260=VERTEX_POINT('',#872);
#261=VERTEX_POINT('',#876);
#262=VERTEX_POINT('',#878);
#263=VERTEX_POINT('',#882);
#264=VERTEX_POINT('',#884);
#265=VERTEX_POINT('',#886);
#266=VERTEX_POINT('',#888);
#267=VERTEX_POINT('',#890);
#268=VERTEX_POINT('',#893);
#269=VERTEX_POINT('',#894);
#270=VERTEX_POINT('',#896);
#271=VERTEX_POINT('',#898);
#272=VERTEX_POINT('',#901);
#273=VERTEX_POINT('',#902);
#274=VERTEX_POINT('',#904);
#275=VERTEX_POINT('',#906);
#276=VERTEX_POINT('',#909);
#277=VERTEX_POINT('',#910);
#278=VERTEX_POINT('',#912);
#279=VERTEX_POINT('',#914);
#280=VERTEX_POINT('',#917);
#281=VERTEX_POINT('',#918);
#282=VERTEX_POINT('',#920);
#283=VERTEX_POINT('',#922);
#284=VERTEX_POINT('',#925);
#285=VERTEX_POINT('',#927);
#286=VERTEX_POINT('',#929);
#287=VERTEX_POINT('',#931);
#288=VERTEX_POINT('',#934);
#289=VERTEX_POINT('',#938);
#290=VERTEX_POINT('',#942);
#291=VERTEX_POINT('',#944);
#292=VERTEX_POINT('',#950);
#293=VERTEX_POINT('',#954);
#294=VERTEX_POINT('',#955);
#295=VERTEX_POINT('',#960);
#296=VERTEX_POINT('',#964);
#297=VERTEX_POINT('',#970);
#298=VERTEX_POINT('',#971);
#299=VERTEX_POINT('',#976);
#300=VERTEX_POINT('',#980);
#301=VERTEX_POINT('',#986);
#302=VERTEX_POINT('',#987);
#303=VERTEX_POINT('',#992);
#304=VERTEX_POINT('',#996);
#305=VERTEX_POINT('',#1002);
#306=VERTEX_POINT('',#1003);
#307=VERTEX_POINT('',#1008);
#308=VERTEX_POINT('',#1012);
#309=VERTEX_POINT('',#1018);
#310=VERTEX_POINT('',#1022);
#311=VERTEX_POINT('',#1026);
#312=VERTEX_POINT('',#1030);
#313=EDGE_CURVE('',#257,#258,#225,.T.);
#314=EDGE_CURVE('',#258,#259,#121,.T.);
#315=EDGE_CURVE('',#259,#260,#226,.T.);
#316=EDGE_CURVE('',#260,#257,#122,.T.);
#317=EDGE_CURVE('',#261,#258,#123,.T.);
#318=EDGE_CURVE('',#262,#261,#124,.T.);
#319=EDGE_CURVE('',#259,#262,#125,.T.);
#320=EDGE_CURVE('',#257,#263,#126,.T.);
#321=EDGE_CURVE('',#264,#263,#227,.T.);
#322=EDGE_CURVE('',#264,#265,#127,.T.);
#323=EDGE_CURVE('',#266,#265,#228,.T.);
#324=EDGE_CURVE('',#266,#267,#128,.T.);
#325=EDGE_CURVE('',#261,#267,#229,.T.);
#326=EDGE_CURVE('',#268,#269,#129,.T.);
#327=EDGE_CURVE('',#269,#270,#230,.T.);
#328=EDGE_CURVE('',#270,#271,#130,.T.);
#329=EDGE_CURVE('',#271,#268,#231,.T.);
#330=EDGE_CURVE('',#272,#273,#131,.T.);
#331=EDGE_CURVE('',#273,#274,#232,.T.);
#332=EDGE_CURVE('',#274,#275,#132,.T.);
#333=EDGE_CURVE('',#275,#272,#233,.T.);
#334=EDGE_CURVE('',#276,#277,#133,.T.);
#335=EDGE_CURVE('',#277,#278,#234,.T.);
#336=EDGE_CURVE('',#278,#279,#134,.T.);
#337=EDGE_CURVE('',#279,#276,#235,.T.);
#338=EDGE_CURVE('',#280,#281,#135,.T.);
#339=EDGE_CURVE('',#281,#282,#236,.T.);
#340=EDGE_CURVE('',#282,#283,#136,.T.);
#341=EDGE_CURVE('',#283,#280,#237,.T.);
#342=EDGE_CURVE('',#284,#284,#238,.T.);
#343=EDGE_CURVE('',#285,#285,#239,.T.);
#344=EDGE_CURVE('',#286,#286,#240,.T.);
#345=EDGE_CURVE('',#287,#287,#241,.T.);
#346=EDGE_CURVE('',#267,#288,#137,.T.);
#347=EDGE_CURVE('',#288,#262,#242,.T.);
#348=EDGE_CURVE('',#289,#266,#138,.T.);
#349=EDGE_CURVE('',#288,#289,#139,.T.);
#350=EDGE_CURVE('',#263,#290,#140,.T.);
#351=EDGE_CURVE('',#290,#291,#243,.T.);
#352=EDGE_CURVE('',#291,#264,#141,.T.);
#353=EDGE_CURVE('',#290,#260,#142,.T.);
#354=EDGE_CURVE('',#265,#292,#143,.T.);
#355=EDGE_CURVE('',#292,#289,#244,.T.);
#356=EDGE_CURVE('',#293,#294,#144,.T.);
#357=EDGE_CURVE('',#269,#293,#145,.T.);
#358=EDGE_CURVE('',#268,#294,#146,.T.);
#359=EDGE_CURVE('',#294,#295,#245,.T.);
#360=EDGE_CURVE('',#271,#295,#147,.T.);
#361=EDGE_CURVE('',#295,#296,#148,.T.);
#362=EDGE_CURVE('',#270,#296,#149,.T.);
#363=EDGE_CURVE('',#296,#293,#246,.T.);
#364=EDGE_CURVE('',#297,#298,#150,.T.);
#365=EDGE_CURVE('',#273,#297,#151,.T.);
#366=EDGE_CURVE('',#272,#298,#152,.T.);
#367=EDGE_CURVE('',#298,#299,#247,.T.);
#368=EDGE_CURVE('',#275,#299,#153,.T.);
#369=EDGE_CURVE('',#299,#300,#154,.T.);
#370=EDGE_CURVE('',#274,#300,#155,.T.);
#371=EDGE_CURVE('',#300,#297,#248,.T.);
#372=EDGE_CURVE('',#301,#302,#156,.T.);
#373=EDGE_CURVE('',#277,#301,#157,.T.);
#374=EDGE_CURVE('',#276,#302,#158,.T.);
#375=EDGE_CURVE('',#302,#303,#249,.T.);
#376=EDGE_CURVE('',#279,#303,#159,.T.);
#377=EDGE_CURVE('',#303,#304,#160,.T.);
#378=EDGE_CURVE('',#278,#304,#161,.T.);
#379=EDGE_CURVE('',#304,#301,#250,.T.);
#380=EDGE_CURVE('',#305,#306,#162,.T.);
#381=EDGE_CURVE('',#281,#305,#163,.T.);
#382=EDGE_CURVE('',#280,#306,#164,.T.);
#383=EDGE_CURVE('',#306,#307,#251,.T.);
#384=EDGE_CURVE('',#283,#307,#165,.T.);
#385=EDGE_CURVE('',#307,#308,#166,.T.);
#386=EDGE_CURVE('',#282,#308,#167,.T.);
#387=EDGE_CURVE('',#308,#305,#252,.T.);
#388=EDGE_CURVE('',#284,#309,#168,.T.);
#389=EDGE_CURVE('',#309,#309,#253,.T.);
#390=EDGE_CURVE('',#285,#310,#169,.T.);
#391=EDGE_CURVE('',#310,#310,#254,.T.);
#392=EDGE_CURVE('',#286,#311,#170,.T.);
#393=EDGE_CURVE('',#311,#311,#255,.T.);
#394=EDGE_CURVE('',#287,#312,#171,.T.);
#395=EDGE_CURVE('',#312,#312,#256,.T.);
#396=EDGE_CURVE('',#292,#291,#172,.T.);
#397=ORIENTED_EDGE('',*,*,#313,.T.);
#398=ORIENTED_EDGE('',*,*,#314,.T.);
#399=ORIENTED_EDGE('',*,*,#315,.T.);
#400=ORIENTED_EDGE('',*,*,#316,.T.);
#401=ORIENTED_EDGE('',*,*,#314,.F.);
#402=ORIENTED_EDGE('',*,*,#317,.F.);
#403=ORIENTED_EDGE('',*,*,#318,.F.);
#404=ORIENTED_EDGE('',*,*,#319,.F.);
#405=ORIENTED_EDGE('',*,*,#313,.F.);
#406=ORIENTED_EDGE('',*,*,#320,.T.);
#407=ORIENTED_EDGE('',*,*,#321,.F.);
#408=ORIENTED_EDGE('',*,*,#322,.T.);
#409=ORIENTED_EDGE('',*,*,#323,.F.);
#410=ORIENTED_EDGE('',*,*,#324,.T.);
#411=ORIENTED_EDGE('',*,*,#325,.F.);
#412=ORIENTED_EDGE('',*,*,#317,.T.);
#413=ORIENTED_EDGE('',*,*,#326,.T.);
#414=ORIENTED_EDGE('',*,*,#327,.T.);
#415=ORIENTED_EDGE('',*,*,#328,.T.);
#416=ORIENTED_EDGE('',*,*,#329,.T.);
#417=ORIENTED_EDGE('',*,*,#330,.T.);
#418=ORIENTED_EDGE('',*,*,#331,.T.);
#419=ORIENTED_EDGE('',*,*,#332,.T.);
#420=ORIENTED_EDGE('',*,*,#333,.T.);
#421=ORIENTED_EDGE('',*,*,#334,.T.);
#422=ORIENTED_EDGE('',*,*,#335,.T.);
#423=ORIENTED_EDGE('',*,*,#336,.T.);
#424=ORIENTED_EDGE('',*,*,#337,.T.);
#425=ORIENTED_EDGE('',*,*,#338,.T.);
#426=ORIENTED_EDGE('',*,*,#339,.T.);
#427=ORIENTED_EDGE('',*,*,#340,.T.);
#428=ORIENTED_EDGE('',*,*,#341,.T.);
#429=ORIENTED_EDGE('',*,*,#342,.T.);
#430=ORIENTED_EDGE('',*,*,#343,.T.);
#431=ORIENTED_EDGE('',*,*,#344,.T.);
#432=ORIENTED_EDGE('',*,*,#345,.T.);
#433=ORIENTED_EDGE('',*,*,#325,.T.);
#434=ORIENTED_EDGE('',*,*,#346,.T.);
#435=ORIENTED_EDGE('',*,*,#347,.T.);
#436=ORIENTED_EDGE('',*,*,#318,.T.);
#437=ORIENTED_EDGE('',*,*,#346,.F.);
#438=ORIENTED_EDGE('',*,*,#324,.F.);
#439=ORIENTED_EDGE('',*,*,#348,.F.);
#440=ORIENTED_EDGE('',*,*,#349,.F.);
#441=ORIENTED_EDGE('',*,*,#321,.T.);
#442=ORIENTED_EDGE('',*,*,#350,.T.);
#443=ORIENTED_EDGE('',*,*,#351,.T.);
#444=ORIENTED_EDGE('',*,*,#352,.T.);
#445=ORIENTED_EDGE('',*,*,#316,.F.);
#446=ORIENTED_EDGE('',*,*,#353,.F.);
#447=ORIENTED_EDGE('',*,*,#350,.F.);
#448=ORIENTED_EDGE('',*,*,#320,.F.);
#449=ORIENTED_EDGE('',*,*,#323,.T.);
#450=ORIENTED_EDGE('',*,*,#354,.T.);
#451=ORIENTED_EDGE('',*,*,#355,.T.);
#452=ORIENTED_EDGE('',*,*,#348,.T.);
#453=ORIENTED_EDGE('',*,*,#356,.F.);
#454=ORIENTED_EDGE('',*,*,#357,.F.);
#455=ORIENTED_EDGE('',*,*,#326,.F.);
#456=ORIENTED_EDGE('',*,*,#358,.T.);
#457=ORIENTED_EDGE('',*,*,#359,.F.);
#458=ORIENTED_EDGE('',*,*,#358,.F.);
#459=ORIENTED_EDGE('',*,*,#329,.F.);
#460=ORIENTED_EDGE('',*,*,#360,.T.);
#461=ORIENTED_EDGE('',*,*,#361,.F.);
#462=ORIENTED_EDGE('',*,*,#360,.F.);
#463=ORIENTED_EDGE('',*,*,#328,.F.);
#464=ORIENTED_EDGE('',*,*,#362,.T.);
#465=ORIENTED_EDGE('',*,*,#363,.F.);
#466=ORIENTED_EDGE('',*,*,#362,.F.);
#467=ORIENTED_EDGE('',*,*,#327,.F.);
#468=ORIENTED_EDGE('',*,*,#357,.T.);
#469=ORIENTED_EDGE('',*,*,#364,.F.);
#470=ORIENTED_EDGE('',*,*,#365,.F.);
#471=ORIENTED_EDGE('',*,*,#330,.F.);
#472=ORIENTED_EDGE('',*,*,#366,.T.);
#473=ORIENTED_EDGE('',*,*,#367,.F.);
#474=ORIENTED_EDGE('',*,*,#366,.F.);
#475=ORIENTED_EDGE('',*,*,#333,.F.);
#476=ORIENTED_EDGE('',*,*,#368,.T.);
#477=ORIENTED_EDGE('',*,*,#369,.F.);
#478=ORIENTED_EDGE('',*,*,#368,.F.);
#479=ORIENTED_EDGE('',*,*,#332,.F.);
#480=ORIENTED_EDGE('',*,*,#370,.T.);
#481=ORIENTED_EDGE('',*,*,#371,.F.);
#482=ORIENTED_EDGE('',*,*,#370,.F.);
#483=ORIENTED_EDGE('',*,*,#331,.F.);
#484=ORIENTED_EDGE('',*,*,#365,.T.);
#485=ORIENTED_EDGE('',*,*,#372,.F.);
#486=ORIENTED_EDGE('',*,*,#373,.F.);
#487=ORIENTED_EDGE('',*,*,#334,.F.);
#488=ORIENTED_EDGE('',*,*,#374,.T.);
#489=ORIENTED_EDGE('',*,*,#375,.F.);
#490=ORIENTED_EDGE('',*,*,#374,.F.);
#491=ORIENTED_EDGE('',*,*,#337,.F.);
#492=ORIENTED_EDGE('',*,*,#376,.T.);
#493=ORIENTED_EDGE('',*,*,#377,.F.);
#494=ORIENTED_EDGE('',*,*,#376,.F.);
#495=ORIENTED_EDGE('',*,*,#336,.F.);
#496=ORIENTED_EDGE('',*,*,#378,.T.);
#497=ORIENTED_EDGE('',*,*,#379,.F.);
#498=ORIENTED_EDGE('',*,*,#378,.F.);
#499=ORIENTED_EDGE('',*,*,#335,.F.);
#500=ORIENTED_EDGE('',*,*,#373,.T.);
#501=ORIENTED_EDGE('',*,*,#380,.F.);
#502=ORIENTED_EDGE('',*,*,#381,.F.);
#503=ORIENTED_EDGE('',*,*,#338,.F.);
#504=ORIENTED_EDGE('',*,*,#382,.T.);
#505=ORIENTED_EDGE('',*,*,#383,.F.);
#506=ORIENTED_EDGE('',*,*,#382,.F.);
#507=ORIENTED_EDGE('',*,*,#341,.F.);
#508=ORIENTED_EDGE('',*,*,#384,.T.);
#509=ORIENTED_EDGE('',*,*,#385,.F.);
#510=ORIENTED_EDGE('',*,*,#384,.F.);
#511=ORIENTED_EDGE('',*,*,#340,.F.);
#512=ORIENTED_EDGE('',*,*,#386,.T.);
#513=ORIENTED_EDGE('',*,*,#387,.F.);
#514=ORIENTED_EDGE('',*,*,#386,.F.);
#515=ORIENTED_EDGE('',*,*,#339,.F.);
#516=ORIENTED_EDGE('',*,*,#381,.T.);
#517=ORIENTED_EDGE('',*,*,#342,.F.);
#518=ORIENTED_EDGE('',*,*,#388,.T.);
#519=ORIENTED_EDGE('',*,*,#389,.F.);
#520=ORIENTED_EDGE('',*,*,#388,.F.);
#521=ORIENTED_EDGE('',*,*,#343,.F.);
#522=ORIENTED_EDGE('',*,*,#390,.T.);
#523=ORIENTED_EDGE('',*,*,#391,.F.);
#524=ORIENTED_EDGE('',*,*,#390,.F.);
#525=ORIENTED_EDGE('',*,*,#344,.F.);
#526=ORIENTED_EDGE('',*,*,#392,.T.);
#527=ORIENTED_EDGE('',*,*,#393,.F.);
#528=ORIENTED_EDGE('',*,*,#392,.F.);
#529=ORIENTED_EDGE('',*,*,#345,.F.);
#530=ORIENTED_EDGE('',*,*,#394,.T.);
#531=ORIENTED_EDGE('',*,*,#395,.F.);
#532=ORIENTED_EDGE('',*,*,#394,.F.);
#533=ORIENTED_EDGE('',*,*,#352,.F.);
#534=ORIENTED_EDGE('',*,*,#396,.F.);
#535=ORIENTED_EDGE('',*,*,#354,.F.);
#536=ORIENTED_EDGE('',*,*,#322,.F.);
#537=ORIENTED_EDGE('',*,*,#315,.F.);
#538=ORIENTED_EDGE('',*,*,#319,.T.);
#539=ORIENTED_EDGE('',*,*,#347,.F.);
#540=ORIENTED_EDGE('',*,*,#349,.T.);
#541=ORIENTED_EDGE('',*,*,#355,.F.);
#542=ORIENTED_EDGE('',*,*,#396,.T.);
#543=ORIENTED_EDGE('',*,*,#351,.F.);
#544=ORIENTED_EDGE('',*,*,#353,.T.);
#545=ORIENTED_EDGE('',*,*,#356,.T.);
#546=ORIENTED_EDGE('',*,*,#359,.T.);
#547=ORIENTED_EDGE('',*,*,#361,.T.);
#548=ORIENTED_EDGE('',*,*,#363,.T.);
#549=ORIENTED_EDGE('',*,*,#364,.T.);
#550=ORIENTED_EDGE('',*,*,#367,.T.);
#551=ORIENTED_EDGE('',*,*,#369,.T.);
#552=ORIENTED_EDGE('',*,*,#371,.T.);
#553=ORIENTED_EDGE('',*,*,#372,.T.);
#554=ORIENTED_EDGE('',*,*,#375,.T.);
#555=ORIENTED_EDGE('',*,*,#377,.T.);
#556=ORIENTED_EDGE('',*,*,#379,.T.);
#557=ORIENTED_EDGE('',*,*,#380,.T.);
#558=ORIENTED_EDGE('',*,*,#383,.T.);
#559=ORIENTED_EDGE('',*,*,#385,.T.);
#560=ORIENTED_EDGE('',*,*,#387,.T.);
#561=ORIENTED_EDGE('',*,*,#389,.T.);
#562=ORIENTED_EDGE('',*,*,#391,.T.);
#563=ORIENTED_EDGE('',*,*,#393,.T.);
#564=ORIENTED_EDGE('',*,*,#395,.T.);
#565=CYLINDRICAL_SURFACE('',#625,3.);
#566=CYLINDRICAL_SURFACE('',#645,3.);
#567=CYLINDRICAL_SURFACE('',#648,3.);
#568=CYLINDRICAL_SURFACE('',#651,3.);
#569=CYLINDRICAL_SURFACE('',#654,5.);
#570=CYLINDRICAL_SURFACE('',#657,5.);
#571=CYLINDRICAL_SURFACE('',#660,4.99999999999996);
#572=CYLINDRICAL_SURFACE('',#663,5.00000000000001);
#573=CYLINDRICAL_SURFACE('',#666,5.);
#574=CYLINDRICAL_SURFACE('',#669,5.);
#575=CYLINDRICAL_SURFACE('',#672,5.);
#576=CYLINDRICAL_SURFACE('',#675,5.);
#577=CYLINDRICAL_SURFACE('',#677,5.);
#578=CYLINDRICAL_SURFACE('',#679,5.);
#579=CYLINDRICAL_SURFACE('',#681,5.);
#580=CYLINDRICAL_SURFACE('',#683,5.);
#581=ADVANCED_FACE('',(#45),#565,.T.);
#582=ADVANCED_FACE('',(#46),#31,.T.);
#583=ADVANCED_FACE('',(#47,#15,#16,#17,#18,#19,#20,#21,#22),#32,.T.);
#584=ADVANCED_FACE('',(#48),#566,.T.);
#585=ADVANCED_FACE('',(#49),#33,.T.);
#586=ADVANCED_FACE('',(#50),#567,.T.);
#587=ADVANCED_FACE('',(#51),#34,.T.);
#588=ADVANCED_FACE('',(#52),#568,.T.);
#589=ADVANCED_FACE('',(#53),#35,.F.);
#590=ADVANCED_FACE('',(#54),#569,.F.);
#591=ADVANCED_FACE('',(#55),#36,.F.);
#592=ADVANCED_FACE('',(#56),#570,.F.);
#593=ADVANCED_FACE('',(#57),#37,.F.);
#594=ADVANCED_FACE('',(#58),#571,.F.);
#595=ADVANCED_FACE('',(#59),#38,.F.);
#596=ADVANCED_FACE('',(#60),#572,.F.);
#597=ADVANCED_FACE('',(#61),#39,.F.);
#598=ADVANCED_FACE('',(#62),#573,.F.);
#599=ADVANCED_FACE('',(#63),#40,.F.);
#600=ADVANCED_FACE('',(#64),#574,.F.);
#601=ADVANCED_FACE('',(#65),#41,.F.);
#602=ADVANCED_FACE('',(#66),#575,.F.);
#603=ADVANCED_FACE('',(#67),#42,.F.);
#604=ADVANCED_FACE('',(#68),#576,.F.);
#605=ADVANCED_FACE('',(#69),#577,.F.);
#606=ADVANCED_FACE('',(#70),#578,.F.);
#607=ADVANCED_FACE('',(#71),#579,.F.);
#608=ADVANCED_FACE('',(#72),#580,.F.);
#609=ADVANCED_FACE('',(#73),#43,.T.);
#610=ADVANCED_FACE('',(#74,#23,#24,#25,#26,#27,#28,#29,#30),#44,.F.);
#611=CLOSED_SHELL('',(#581,#582,#583,#584,#585,#586,#587,#588,#589,#590,
#591,#592,#593,#594,#595,#596,#597,#598,#599,#600,#601,#602,#603,#604,#605,
#606,#607,#608,#609,#610));
#612=DERIVED_UNIT_ELEMENT(#614,1.);
#613=DERIVED_UNIT_ELEMENT(#1041,-3.);
#614=(
MASS_UNIT()
NAMED_UNIT(*)
SI_UNIT(.KILO.,.GRAM.)
);
#615=DERIVED_UNIT((#612,#613));
#616=MEASURE_REPRESENTATION_ITEM('density measure',
POSITIVE_RATIO_MEASURE(7850.),#615);
#617=PROPERTY_DEFINITION_REPRESENTATION(#622,#619);
#618=PROPERTY_DEFINITION_REPRESENTATION(#623,#620);
#619=REPRESENTATION('material name',(#621),#1038);
#620=REPRESENTATION('density',(#616),#1038);
#621=DESCRIPTIVE_REPRESENTATION_ITEM('Steel','Steel');
#622=PROPERTY_DEFINITION('material property','material name',#1048);
#623=PROPERTY_DEFINITION('material property','density of part',#1048);
#624=AXIS2_PLACEMENT_3D('',#865,#687,#688);
#625=AXIS2_PLACEMENT_3D('',#866,#689,#690);
#626=AXIS2_PLACEMENT_3D('',#869,#691,#692);
#627=AXIS2_PLACEMENT_3D('',#873,#694,#695);
#628=AXIS2_PLACEMENT_3D('',#875,#697,#698);
#629=AXIS2_PLACEMENT_3D('',#881,#702,#703);
#630=AXIS2_PLACEMENT_3D('',#885,#705,#706);
#631=AXIS2_PLACEMENT_3D('',#889,#708,#709);
#632=AXIS2_PLACEMENT_3D('',#892,#711,#712);
#633=AXIS2_PLACEMENT_3D('',#897,#714,#715);
#634=AXIS2_PLACEMENT_3D('',#900,#717,#718);
#635=AXIS2_PLACEMENT_3D('',#905,#720,#721);
#636=AXIS2_PLACEMENT_3D('',#908,#723,#724);
#637=AXIS2_PLACEMENT_3D('',#913,#726,#727);
#638=AXIS2_PLACEMENT_3D('',#916,#729,#730);
#639=AXIS2_PLACEMENT_3D('',#921,#732,#733);
#640=AXIS2_PLACEMENT_3D('',#924,#735,#736);
#641=AXIS2_PLACEMENT_3D('',#926,#737,#738);
#642=AXIS2_PLACEMENT_3D('',#928,#739,#740);
#643=AXIS2_PLACEMENT_3D('',#930,#741,#742);
#644=AXIS2_PLACEMENT_3D('',#932,#743,#744);
#645=AXIS2_PLACEMENT_3D('',#933,#745,#746);
#646=AXIS2_PLACEMENT_3D('',#936,#748,#749);
#647=AXIS2_PLACEMENT_3D('',#937,#750,#751);
#648=AXIS2_PLACEMENT_3D('',#941,#754,#755);
#649=AXIS2_PLACEMENT_3D('',#945,#757,#758);
#650=AXIS2_PLACEMENT_3D('',#947,#760,#761);
#651=AXIS2_PLACEMENT_3D('',#949,#763,#764);
#652=AXIS2_PLACEMENT_3D('',#952,#766,#767);
#653=AXIS2_PLACEMENT_3D('',#953,#768,#769);
#654=AXIS2_PLACEMENT_3D('',#959,#773,#774);
#655=AXIS2_PLACEMENT_3D('',#961,#775,#776);
#656=AXIS2_PLACEMENT_3D('',#963,#778,#779);
#657=AXIS2_PLACEMENT_3D('',#967,#782,#783);
#658=AXIS2_PLACEMENT_3D('',#968,#784,#785);
#659=AXIS2_PLACEMENT_3D('',#969,#786,#787);
#660=AXIS2_PLACEMENT_3D('',#975,#791,#792);
#661=AXIS2_PLACEMENT_3D('',#977,#793,#794);
#662=AXIS2_PLACEMENT_3D('',#979,#796,#797);
#663=AXIS2_PLACEMENT_3D('',#983,#800,#801);
#664=AXIS2_PLACEMENT_3D('',#984,#802,#803);
#665=AXIS2_PLACEMENT_3D('',#985,#804,#805);
#666=AXIS2_PLACEMENT_3D('',#991,#809,#810);
#667=AXIS2_PLACEMENT_3D('',#993,#811,#812);
#668=AXIS2_PLACEMENT_3D('',#995,#814,#815);
#669=AXIS2_PLACEMENT_3D('',#999,#818,#819);
#670=AXIS2_PLACEMENT_3D('',#1000,#820,#821);
#671=AXIS2_PLACEMENT_3D('',#1001,#822,#823);
#672=AXIS2_PLACEMENT_3D('',#1007,#827,#828);
#673=AXIS2_PLACEMENT_3D('',#1009,#829,#830);
#674=AXIS2_PLACEMENT_3D('',#1011,#832,#833);
#675=AXIS2_PLACEMENT_3D('',#1015,#836,#837);
#676=AXIS2_PLACEMENT_3D('',#1016,#838,#839);
#677=AXIS2_PLACEMENT_3D('',#1017,#840,#841);
#678=AXIS2_PLACEMENT_3D('',#1020,#843,#844);
#679=AXIS2_PLACEMENT_3D('',#1021,#845,#846);
#680=AXIS2_PLACEMENT_3D('',#1024,#848,#849);
#681=AXIS2_PLACEMENT_3D('',#1025,#850,#851);
#682=AXIS2_PLACEMENT_3D('',#1028,#853,#854);
#683=AXIS2_PLACEMENT_3D('',#1029,#855,#856);
#684=AXIS2_PLACEMENT_3D('',#1032,#858,#859);
#685=AXIS2_PLACEMENT_3D('',#1033,#860,#861);
#686=AXIS2_PLACEMENT_3D('',#1035,#863,#864);
#687=DIRECTION('axis',(0.,0.,1.));
#688=DIRECTION('refdir',(1.,0.,0.));
#689=DIRECTION('center_axis',(0.,0.,1.));
#690=DIRECTION('ref_axis',(-0.707106781186543,-0.707106781186552,0.));
#691=DIRECTION('center_axis',(0.,0.,-1.));
#692=DIRECTION('ref_axis',(-0.707106781186543,-0.707106781186552,0.));
#693=DIRECTION('',(0.,0.,-1.));
#694=DIRECTION('center_axis',(0.,0.,1.));
#695=DIRECTION('ref_axis',(-0.707106781186543,-0.707106781186552,0.));
#696=DIRECTION('',(0.,0.,1.));
#697=DIRECTION('center_axis',(-1.,-4.80096443081149E-16,0.));
#698=DIRECTION('ref_axis',(4.80096443081149E-16,-1.,0.));
#699=DIRECTION('',(4.80096443081149E-16,-1.,0.));
#700=DIRECTION('',(0.,0.,1.));
#701=DIRECTION('',(-4.80096443081149E-16,1.,0.));
#702=DIRECTION('center_axis',(0.,0.,1.));
#703=DIRECTION('ref_axis',(1.,0.,0.));
#704=DIRECTION('',(1.,1.48029736616688E-17,0.));
#705=DIRECTION('center_axis',(0.,0.,-1.));
#706=DIRECTION('ref_axis',(0.707106781186549,-0.707106781186546,0.));
#707=DIRECTION('',(7.20144664621723E-16,1.,0.));
#708=DIRECTION('center_axis',(0.,0.,-1.));
#709=DIRECTION('ref_axis',(0.707106781186553,0.707106781186542,0.));
#710=DIRECTION('',(-1.,4.44089209850063E-17,0.));
#711=DIRECTION('center_axis',(0.,0.,-1.));
#712=DIRECTION('ref_axis',(-0.707106781186548,0.707106781186548,0.));
#713=DIRECTION('',(1.,0.,0.));
#714=DIRECTION('center_axis',(0.,0.,-1.));
#715=DIRECTION('ref_axis',(0.,-1.,0.));
#716=DIRECTION('',(-1.,0.,0.));
#717=DIRECTION('center_axis',(0.,0.,-1.));
#718=DIRECTION('ref_axis',(0.,1.,0.));
#719=DIRECTION('',(1.,7.40148683083436E-15,0.));
#720=DIRECTION('center_axis',(0.,0.,-1.));
#721=DIRECTION('ref_axis',(0.,-1.,0.));
#722=DIRECTION('',(-1.,0.,0.));
#723=DIRECTION('center_axis',(0.,0.,-1.));
#724=DIRECTION('ref_axis',(0.,1.,0.));
#725=DIRECTION('',(1.,0.,0.));
#726=DIRECTION('center_axis',(0.,0.,-1.));
#727=DIRECTION('ref_axis',(0.,-1.,0.));
#728=DIRECTION('',(-1.,0.,0.));
#729=DIRECTION('center_axis',(0.,0.,-1.));
#730=DIRECTION('ref_axis',(0.,1.,0.));
#731=DIRECTION('',(1.,0.,0.));
#732=DIRECTION('center_axis',(0.,0.,-1.));
#733=DIRECTION('ref_axis',(0.,-1.,0.));
#734=DIRECTION('',(-1.,0.,0.));
#735=DIRECTION('center_axis',(0.,0.,-1.));
#736=DIRECTION('ref_axis',(0.,1.,0.));
#737=DIRECTION('center_axis',(0.,0.,-1.));
#738=DIRECTION('ref_axis',(1.,0.,0.));
#739=DIRECTION('center_axis',(0.,0.,-1.));
#740=DIRECTION('ref_axis',(1.,0.,0.));
#741=DIRECTION('center_axis',(0.,0.,-1.));
#742=DIRECTION('ref_axis',(1.,0.,0.));
#743=DIRECTION('center_axis',(0.,0.,-1.));
#744=DIRECTION('ref_axis',(1.,0.,0.));
#745=DIRECTION('center_axis',(0.,0.,1.));
#746=DIRECTION('ref_axis',(-0.707106781186548,0.707106781186548,0.));
#747=DIRECTION('',(0.,0.,-1.));
#748=DIRECTION('center_axis',(0.,0.,1.));
#749=DIRECTION('ref_axis',(-0.707106781186548,0.707106781186548,0.));
#750=DIRECTION('center_axis',(4.44089209850063E-17,1.,0.));
#751=DIRECTION('ref_axis',(-1.,4.44089209850063E-17,0.));
#752=DIRECTION('',(0.,0.,1.));
#753=DIRECTION('',(1.,-4.44089209850063E-17,0.));
#754=DIRECTION('center_axis',(0.,0.,1.));
#755=DIRECTION('ref_axis',(0.707106781186549,-0.707106781186546,0.));
#756=DIRECTION('',(0.,0.,-1.));
#757=DIRECTION('center_axis',(0.,0.,1.));
#758=DIRECTION('ref_axis',(0.707106781186549,-0.707106781186546,0.));
#759=DIRECTION('',(0.,0.,1.));
#760=DIRECTION('center_axis',(1.48029736616688E-17,-1.,0.));
#761=DIRECTION('ref_axis',(1.,1.48029736616688E-17,0.));
#762=DIRECTION('',(-1.,-1.48029736616688E-17,0.));
#763=DIRECTION('center_axis',(0.,0.,1.));
#764=DIRECTION('ref_axis',(0.707106781186553,0.707106781186542,0.));
#765=DIRECTION('',(0.,0.,-1.));
#766=DIRECTION('center_axis',(0.,0.,1.));
#767=DIRECTION('ref_axis',(0.707106781186553,0.707106781186542,0.));
#768=DIRECTION('center_axis',(0.,1.,0.));
#769=DIRECTION('ref_axis',(1.,0.,0.));
#770=DIRECTION('',(-1.,0.,0.));
#771=DIRECTION('',(0.,0.,-1.));
#772=DIRECTION('',(0.,0.,-1.));
#773=DIRECTION('center_axis',(0.,0.,-1.));
#774=DIRECTION('ref_axis',(0.,1.,0.));
#775=DIRECTION('center_axis',(0.,0.,1.));
#776=DIRECTION('ref_axis',(0.,1.,0.));
#777=DIRECTION('',(0.,0.,-1.));
#778=DIRECTION('center_axis',(0.,-1.,0.));
#779=DIRECTION('ref_axis',(-1.,0.,0.));
#780=DIRECTION('',(1.,0.,0.));
#781=DIRECTION('',(0.,0.,-1.));
#782=DIRECTION('center_axis',(0.,0.,-1.));
#783=DIRECTION('ref_axis',(0.,-1.,0.));
#784=DIRECTION('center_axis',(0.,0.,1.));
#785=DIRECTION('ref_axis',(0.,-1.,0.));
#786=DIRECTION('center_axis',(-7.40148683083436E-15,1.,0.));
#787=DIRECTION('ref_axis',(1.,7.40148683083436E-15,0.));
#788=DIRECTION('',(-1.,-7.40148683083436E-15,0.));
#789=DIRECTION('',(0.,0.,-1.));
#790=DIRECTION('',(0.,0.,-1.));
#791=DIRECTION('center_axis',(0.,0.,-1.));
#792=DIRECTION('ref_axis',(0.,1.,0.));
#793=DIRECTION('center_axis',(0.,0.,1.));
#794=DIRECTION('ref_axis',(0.,1.,0.));
#795=DIRECTION('',(0.,0.,-1.));
#796=DIRECTION('center_axis',(0.,-1.,0.));
#797=DIRECTION('ref_axis',(-1.,0.,0.));
#798=DIRECTION('',(1.,0.,0.));
#799=DIRECTION('',(0.,0.,-1.));
#800=DIRECTION('center_axis',(0.,0.,-1.));
#801=DIRECTION('ref_axis',(0.,-1.,0.));
#802=DIRECTION('center_axis',(0.,0.,1.));
#803=DIRECTION('ref_axis',(0.,-1.,0.));
#804=DIRECTION('center_axis',(0.,1.,0.));
#805=DIRECTION('ref_axis',(1.,0.,0.));
#806=DIRECTION('',(-1.,0.,0.));
#807=DIRECTION('',(0.,0.,-1.));
#808=DIRECTION('',(0.,0.,-1.));
#809=DIRECTION('center_axis',(0.,0.,-1.));
#810=DIRECTION('ref_axis',(0.,1.,0.));
#811=DIRECTION('center_axis',(0.,0.,1.));
#812=DIRECTION('ref_axis',(0.,1.,0.));
#813=DIRECTION('',(0.,0.,-1.));
#814=DIRECTION('center_axis',(0.,-1.,0.));
#815=DIRECTION('ref_axis',(-1.,0.,0.));
#816=DIRECTION('',(1.,0.,0.));
#817=DIRECTION('',(0.,0.,-1.));
#818=DIRECTION('center_axis',(0.,0.,-1.));
#819=DIRECTION('ref_axis',(0.,-1.,0.));
#820=DIRECTION('center_axis',(0.,0.,1.));
#821=DIRECTION('ref_axis',(0.,-1.,0.));
#822=DIRECTION('center_axis',(0.,1.,0.));
#823=DIRECTION('ref_axis',(1.,0.,0.));
#824=DIRECTION('',(-1.,0.,0.));
#825=DIRECTION('',(0.,0.,-1.));
#826=DIRECTION('',(0.,0.,-1.));
#827=DIRECTION('center_axis',(0.,0.,-1.));
#828=DIRECTION('ref_axis',(0.,1.,0.));
#829=DIRECTION('center_axis',(0.,0.,1.));
#830=DIRECTION('ref_axis',(0.,1.,0.));
#831=DIRECTION('',(0.,0.,-1.));
#832=DIRECTION('center_axis',(0.,-1.,0.));
#833=DIRECTION('ref_axis',(-1.,0.,0.));
#834=DIRECTION('',(1.,0.,0.));
#835=DIRECTION('',(0.,0.,-1.));
#836=DIRECTION('center_axis',(0.,0.,-1.));
#837=DIRECTION('ref_axis',(0.,-1.,0.));
#838=DIRECTION('center_axis',(0.,0.,1.));
#839=DIRECTION('ref_axis',(0.,-1.,0.));
#840=DIRECTION('center_axis',(0.,0.,-1.));
#841=DIRECTION('ref_axis',(1.,0.,0.));
#842=DIRECTION('',(0.,0.,-1.));
#843=DIRECTION('center_axis',(0.,0.,1.));
#844=DIRECTION('ref_axis',(1.,0.,0.));
#845=DIRECTION('center_axis',(0.,0.,-1.));
#846=DIRECTION('ref_axis',(1.,0.,0.));
#847=DIRECTION('',(0.,0.,-1.));
#848=DIRECTION('center_axis',(0.,0.,1.));
#849=DIRECTION('ref_axis',(1.,0.,0.));
#850=DIRECTION('center_axis',(0.,0.,-1.));
#851=DIRECTION('ref_axis',(1.,0.,0.));
#852=DIRECTION('',(0.,0.,-1.));
#853=DIRECTION('center_axis',(0.,0.,1.));
#854=DIRECTION('ref_axis',(1.,0.,0.));
#855=DIRECTION('center_axis',(0.,0.,-1.));
#856=DIRECTION('ref_axis',(1.,0.,0.));
#857=DIRECTION('',(0.,0.,-1.));
#858=DIRECTION('center_axis',(0.,0.,1.));
#859=DIRECTION('ref_axis',(1.,0.,0.));
#860=DIRECTION('center_axis',(1.,-7.20144664621723E-16,0.));
#861=DIRECTION('ref_axis',(7.20144664621723E-16,1.,0.));
#862=DIRECTION('',(-7.20144664621723E-16,-1.,0.));
#863=DIRECTION('center_axis',(0.,0.,1.));
#864=DIRECTION('ref_axis',(1.,0.,0.));
#865=CARTESIAN_POINT('',(0.,0.,0.));
#866=CARTESIAN_POINT('Origin',(-147.,-34.,0.));
#867=CARTESIAN_POINT('',(-147.,-37.,3.048));
#868=CARTESIAN_POINT('',(-150.,-34.,3.048));
#869=CARTESIAN_POINT('Origin',(-147.,-34.,3.048));
#870=CARTESIAN_POINT('',(-150.,-34.,0.));
#871=CARTESIAN_POINT('',(-150.,-34.,0.));
#872=CARTESIAN_POINT('',(-147.,-37.,0.));
#873=CARTESIAN_POINT('Origin',(-147.,-34.,0.));
#874=CARTESIAN_POINT('',(-147.,-37.,0.));
#875=CARTESIAN_POINT('Origin',(-150.,37.,0.));
#876=CARTESIAN_POINT('',(-150.,34.,3.048));
#877=CARTESIAN_POINT('',(-150.,-37.,3.048));
#878=CARTESIAN_POINT('',(-150.,34.,0.));
#879=CARTESIAN_POINT('',(-150.,34.,0.));
#880=CARTESIAN_POINT('',(-150.,-37.,0.));
#881=CARTESIAN_POINT('Origin',(-1.77635683940025E-14,4.44089209850063E-15,
3.048));
#882=CARTESIAN_POINT('',(147.,-37.,3.048));
#883=CARTESIAN_POINT('',(150.,-37.,3.048));
#884=CARTESIAN_POINT('',(150.,-34.,3.048));
#885=CARTESIAN_POINT('Origin',(147.,-34.,3.048));
#886=CARTESIAN_POINT('',(150.,34.,3.048));
#887=CARTESIAN_POINT('',(150.,37.,3.048));
#888=CARTESIAN_POINT('',(147.,37.,3.048));
#889=CARTESIAN_POINT('Origin',(147.,34.,3.048));
#890=CARTESIAN_POINT('',(-147.,37.,3.048));
#891=CARTESIAN_POINT('',(-150.,37.,3.048));
#892=CARTESIAN_POINT('Origin',(-147.,34.,3.048));
#893=CARTESIAN_POINT('',(-136.,-20.,3.048));
#894=CARTESIAN_POINT('',(-124.,-20.,3.048));
#895=CARTESIAN_POINT('',(-68.,-20.,3.048));
#896=CARTESIAN_POINT('',(-124.,-30.,3.048));
#897=CARTESIAN_POINT('Origin',(-124.,-25.,3.048));
#898=CARTESIAN_POINT('',(-136.,-30.,3.048));
#899=CARTESIAN_POINT('',(-62.,-30.,3.048));
#900=CARTESIAN_POINT('Origin',(-136.,-25.,3.048));
#901=CARTESIAN_POINT('',(-86.,-20.,3.048));
#902=CARTESIAN_POINT('',(-74.,-19.9999999999999,3.048));
#903=CARTESIAN_POINT('',(-42.9999999999999,-19.9999999999997,3.048));
#904=CARTESIAN_POINT('',(-74.,-29.9999999999999,3.048));
#905=CARTESIAN_POINT('Origin',(-74.,-24.9999999999999,3.048));
#906=CARTESIAN_POINT('',(-86.,-29.9999999999999,3.048));
#907=CARTESIAN_POINT('',(-37.,-29.9999999999999,3.048));
#908=CARTESIAN_POINT('Origin',(-86.,-25.,3.048));
#909=CARTESIAN_POINT('',(-136.,30.,3.048));
#910=CARTESIAN_POINT('',(-124.,30.,3.048));
#911=CARTESIAN_POINT('',(-68.,30.,3.048));
#912=CARTESIAN_POINT('',(-124.,20.,3.048));
#913=CARTESIAN_POINT('Origin',(-124.,25.,3.048));
#914=CARTESIAN_POINT('',(-136.,20.,3.048));
#915=CARTESIAN_POINT('',(-62.,20.,3.048));
#916=CARTESIAN_POINT('Origin',(-136.,25.,3.048));
#917=CARTESIAN_POINT('',(-86.,30.,3.048));
#918=CARTESIAN_POINT('',(-74.,30.,3.048));
#919=CARTESIAN_POINT('',(-43.,30.,3.048));
#920=CARTESIAN_POINT('',(-74.,20.,3.048));
#921=CARTESIAN_POINT('Origin',(-74.,25.,3.048));
#922=CARTESIAN_POINT('',(-86.,20.,3.048));
#923=CARTESIAN_POINT('',(-37.,20.,3.048));
#924=CARTESIAN_POINT('Origin',(-86.,25.,3.048));
#925=CARTESIAN_POINT('',(125.,-24.9999999999999,3.048));
#926=CARTESIAN_POINT('Origin',(130.,-24.9999999999999,3.048));
#927=CARTESIAN_POINT('',(75.,25.0000000000001,3.048));
#928=CARTESIAN_POINT('Origin',(80.,25.0000000000001,3.048));
#929=CARTESIAN_POINT('',(75.,-24.9999999999999,3.048));
#930=CARTESIAN_POINT('Origin',(80.,-24.9999999999999,3.048));
#931=CARTESIAN_POINT('',(125.,25.0000000000001,3.048));
#932=CARTESIAN_POINT('Origin',(130.,25.0000000000001,3.048));
#933=CARTESIAN_POINT('Origin',(-147.,34.,0.));
#934=CARTESIAN_POINT('',(-147.,37.,0.));
#935=CARTESIAN_POINT('',(-147.,37.,0.));
#936=CARTESIAN_POINT('Origin',(-147.,34.,0.));
#937=CARTESIAN_POINT('Origin',(150.,37.,0.));
#938=CARTESIAN_POINT('',(147.,37.,0.));
#939=CARTESIAN_POINT('',(147.,37.,0.));
#940=CARTESIAN_POINT('',(-150.,37.,0.));
#941=CARTESIAN_POINT('Origin',(147.,-34.,0.));
#942=CARTESIAN_POINT('',(147.,-37.,0.));
#943=CARTESIAN_POINT('',(147.,-37.,0.));
#944=CARTESIAN_POINT('',(150.,-34.,0.));
#945=CARTESIAN_POINT('Origin',(147.,-34.,0.));
#946=CARTESIAN_POINT('',(150.,-34.,0.));
#947=CARTESIAN_POINT('Origin',(-150.,-37.,0.));
#948=CARTESIAN_POINT('',(150.,-37.,0.));
#949=CARTESIAN_POINT('Origin',(147.,34.,0.));
#950=CARTESIAN_POINT('',(150.,34.,0.));
#951=CARTESIAN_POINT('',(150.,34.,0.));
#952=CARTESIAN_POINT('Origin',(147.,34.,0.));
#953=CARTESIAN_POINT('Origin',(-136.,-20.,3.048));
#954=CARTESIAN_POINT('',(-124.,-20.,0.));
#955=CARTESIAN_POINT('',(-136.,-20.,0.));
#956=CARTESIAN_POINT('',(-68.,-20.,0.));
#957=CARTESIAN_POINT('',(-124.,-20.,3.048));
#958=CARTESIAN_POINT('',(-136.,-20.,3.048));
#959=CARTESIAN_POINT('Origin',(-136.,-25.,3.048));
#960=CARTESIAN_POINT('',(-136.,-30.,0.));
#961=CARTESIAN_POINT('Origin',(-136.,-25.,0.));
#962=CARTESIAN_POINT('',(-136.,-30.,3.048));
#963=CARTESIAN_POINT('Origin',(-124.,-30.,3.048));
#964=CARTESIAN_POINT('',(-124.,-30.,0.));
#965=CARTESIAN_POINT('',(-62.,-30.,0.));
#966=CARTESIAN_POINT('',(-124.,-30.,3.048));
#967=CARTESIAN_POINT('Origin',(-124.,-25.,3.048));
#968=CARTESIAN_POINT('Origin',(-124.,-25.,0.));
#969=CARTESIAN_POINT('Origin',(-86.,-20.,3.048));
#970=CARTESIAN_POINT('',(-74.,-19.9999999999999,0.));
#971=CARTESIAN_POINT('',(-86.,-20.,0.));
#972=CARTESIAN_POINT('',(-42.9999999999999,-19.9999999999997,0.));
#973=CARTESIAN_POINT('',(-74.,-19.9999999999999,3.048));
#974=CARTESIAN_POINT('',(-86.,-20.,3.048));
#975=CARTESIAN_POINT('Origin',(-86.,-25.,3.048));
#976=CARTESIAN_POINT('',(-86.,-29.9999999999999,0.));
#977=CARTESIAN_POINT('Origin',(-86.,-25.,0.));
#978=CARTESIAN_POINT('',(-86.,-29.9999999999999,3.048));
#979=CARTESIAN_POINT('Origin',(-74.,-29.9999999999999,3.048));
#980=CARTESIAN_POINT('',(-74.,-29.9999999999999,0.));
#981=CARTESIAN_POINT('',(-37.,-29.9999999999999,0.));
#982=CARTESIAN_POINT('',(-74.,-29.9999999999999,3.048));
#983=CARTESIAN_POINT('Origin',(-74.,-24.9999999999999,3.048));
#984=CARTESIAN_POINT('Origin',(-74.,-24.9999999999999,0.));
#985=CARTESIAN_POINT('Origin',(-136.,30.,3.048));
#986=CARTESIAN_POINT('',(-124.,30.,0.));
#987=CARTESIAN_POINT('',(-136.,30.,0.));
#988=CARTESIAN_POINT('',(-68.,30.,0.));
#989=CARTESIAN_POINT('',(-124.,30.,3.048));
#990=CARTESIAN_POINT('',(-136.,30.,3.048));
#991=CARTESIAN_POINT('Origin',(-136.,25.,3.048));
#992=CARTESIAN_POINT('',(-136.,20.,0.));
#993=CARTESIAN_POINT('Origin',(-136.,25.,0.));
#994=CARTESIAN_POINT('',(-136.,20.,3.048));
#995=CARTESIAN_POINT('Origin',(-124.,20.,3.048));
#996=CARTESIAN_POINT('',(-124.,20.,0.));
#997=CARTESIAN_POINT('',(-62.,20.,0.));
#998=CARTESIAN_POINT('',(-124.,20.,3.048));
#999=CARTESIAN_POINT('Origin',(-124.,25.,3.048));
#1000=CARTESIAN_POINT('Origin',(-124.,25.,0.));
#1001=CARTESIAN_POINT('Origin',(-86.,30.,3.048));
#1002=CARTESIAN_POINT('',(-74.,30.,0.));
#1003=CARTESIAN_POINT('',(-86.,30.,0.));
#1004=CARTESIAN_POINT('',(-43.,30.,0.));
#1005=CARTESIAN_POINT('',(-74.,30.,3.048));
#1006=CARTESIAN_POINT('',(-86.,30.,3.048));
#1007=CARTESIAN_POINT('Origin',(-86.,25.,3.048));
#1008=CARTESIAN_POINT('',(-86.,20.,0.));
#1009=CARTESIAN_POINT('Origin',(-86.,25.,0.));
#1010=CARTESIAN_POINT('',(-86.,20.,3.048));
#1011=CARTESIAN_POINT('Origin',(-74.,20.,3.048));
#1012=CARTESIAN_POINT('',(-74.,20.,0.));
#1013=CARTESIAN_POINT('',(-37.,20.,0.));
#1014=CARTESIAN_POINT('',(-74.,20.,3.048));
#1015=CARTESIAN_POINT('Origin',(-74.,25.,3.048));
#1016=CARTESIAN_POINT('Origin',(-74.,25.,0.));
#1017=CARTESIAN_POINT('Origin',(130.,-24.9999999999999,1.3716));
#1018=CARTESIAN_POINT('',(125.,-24.9999999999999,0.));
#1019=CARTESIAN_POINT('',(125.,-24.9999999999999,1.3716));
#1020=CARTESIAN_POINT('Origin',(130.,-24.9999999999999,0.));
#1021=CARTESIAN_POINT('Origin',(80.,25.0000000000001,1.3716));
#1022=CARTESIAN_POINT('',(75.,25.0000000000001,0.));
#1023=CARTESIAN_POINT('',(75.,25.0000000000001,1.3716));
#1024=CARTESIAN_POINT('Origin',(80.,25.0000000000001,0.));
#1025=CARTESIAN_POINT('Origin',(80.,-24.9999999999999,1.3716));
#1026=CARTESIAN_POINT('',(75.,-24.9999999999999,0.));
#1027=CARTESIAN_POINT('',(75.,-24.9999999999999,1.3716));
#1028=CARTESIAN_POINT('Origin',(80.,-24.9999999999999,0.));
#1029=CARTESIAN_POINT('Origin',(130.,25.0000000000001,1.3716));
#1030=CARTESIAN_POINT('',(125.,25.0000000000001,0.));
#1031=CARTESIAN_POINT('',(125.,25.0000000000001,1.3716));
#1032=CARTESIAN_POINT('Origin',(130.,25.0000000000001,0.));
#1033=CARTESIAN_POINT('Origin',(150.,-37.,0.));
#1034=CARTESIAN_POINT('',(150.,37.,0.));
#1035=CARTESIAN_POINT('Origin',(-1.77635683940025E-14,4.44089209850063E-15,
0.));
#1036=UNCERTAINTY_MEASURE_WITH_UNIT(LENGTH_MEASURE(0.01),#1040,
'DISTANCE_ACCURACY_VALUE',
'Maximum model space distance between geometric entities at asserted c
onnectivities');
#1037=UNCERTAINTY_MEASURE_WITH_UNIT(LENGTH_MEASURE(0.01),#1040,
'DISTANCE_ACCURACY_VALUE',
'Maximum model space distance between geometric entities at asserted c
onnectivities');
#1038=(
GEOMETRIC_REPRESENTATION_CONTEXT(3)
GLOBAL_UNCERTAINTY_ASSIGNED_CONTEXT((#1036))
GLOBAL_UNIT_ASSIGNED_CONTEXT((#1040,#1042,#1043))
REPRESENTATION_CONTEXT('','3D')
);
#1039=(
GEOMETRIC_REPRESENTATION_CONTEXT(3)
GLOBAL_UNCERTAINTY_ASSIGNED_CONTEXT((#1037))
GLOBAL_UNIT_ASSIGNED_CONTEXT((#1040,#1042,#1043))
REPRESENTATION_CONTEXT('','3D')
);
#1040=(
LENGTH_UNIT()
NAMED_UNIT(*)
SI_UNIT(.MILLI.,.METRE.)
);
#1041=(
LENGTH_UNIT()
NAMED_UNIT(*)
SI_UNIT($,.METRE.)
);
#1042=(
NAMED_UNIT(*)
PLANE_ANGLE_UNIT()
SI_UNIT($,.RADIAN.)
);
#1043=(
NAMED_UNIT(*)
SI_UNIT($,.STERADIAN.)
SOLID_ANGLE_UNIT()
);
#1044=SHAPE_DEFINITION_REPRESENTATION(#1045,#1046);
#1045=PRODUCT_DEFINITION_SHAPE('',$,#1048);
#1046=SHAPE_REPRESENTATION('',(#624),#1038);
#1047=PRODUCT_DEFINITION_CONTEXT('part definition',#1052,'design');
#1048=PRODUCT_DEFINITION('Connecting Plate','Connecting Plate v3',#1049,
#1047);
#1049=PRODUCT_DEFINITION_FORMATION('',$,#1054);
#1050=PRODUCT_RELATED_PRODUCT_CATEGORY('Connecting Plate v3',
'Connecting Plate v3',(#1054));
#1051=APPLICATION_PROTOCOL_DEFINITION('international standard',
'automotive_design',2009,#1052);
#1052=APPLICATION_CONTEXT(
'Core Data for Automotive Mechanical Design Process');
#1053=PRODUCT_CONTEXT('part definition',#1052,'mechanical');
#1054=PRODUCT('Connecting Plate','Connecting Plate v3',$,(#1053));
#1055=PRESENTATION_STYLE_ASSIGNMENT((#1056));
#1056=SURFACE_STYLE_USAGE(.BOTH.,#1057);
#1057=SURFACE_SIDE_STYLE('',(#1058));
#1058=SURFACE_STYLE_FILL_AREA(#1059);
#1059=FILL_AREA_STYLE('Steel - Satin',(#1060));
#1060=FILL_AREA_STYLE_COLOUR('Steel - Satin',#1061);
#1061=COLOUR_RGB('Steel - Satin',0.627450980392157,0.627450980392157,0.627450980392157);
ENDSEC;
END-ISO-10303-21;
